<svg xmlns="http://www.w3.org/2000/svg" viewBox="0 0 28.87 53.01" role="img" aria-label="LONDRES"><title>LONDRES</title><g transform="translate(-13.46 109.71) scale(1 -1)"><path fill="#FF0000" fill-rule="evenodd" d="M21.06 68.39C21.17 68.39 21.23 68.46 21.23 68.55C21.21 70.3 21.25 72.03 21.22 73.77C20.53 73.8 19.77 73.76 19.16 73.73C19.2 72.14 19.17 70.46 19.14 68.87C19.14 68.74 19.15 68.61 19.17 68.49C19.18 68.43 19.3 68.45 19.38 68.45C19.93 68.38 20.48 68.43 21.06 68.39ZM22.49 68.39C26.08 68.38 29.64 68.39 33.22 68.38C33.35 68.38 33.44 68.44 33.44 68.55C33.42 70.32 33.46 72.02 33.42 73.8C29.71 73.8 26.03 73.82 22.31 73.79C22.28 72.01 22.32 70.31 22.29 68.55C22.29 68.44 22.37 68.39 22.49 68.39ZM34.34 68.38C35.18 68.39 35.85 68.36 36.67 68.4C36.67 70.2 36.67 71.98 36.67 73.79C35.86 73.82 35.15 73.81 34.33 73.79C34.33 71.98 34.32 70.19 34.34 68.38ZM19.02 68.61C19 68.71 19.02 68.75 19.03 68.81C19.03 68.85 19.01 68.97 19 68.94C18.97 68.86 19.01 68.75 18.99 68.61C18.97 68.49 19.04 68.47 19.02 68.61ZM19 69.97C19.01 69.97 19.05 70.03 19.05 70.07C18.94 70.6 19.09 71.07 19.05 71.59C19.02 71.85 19.05 72.12 19.03 72.38C19.01 72.52 19.11 72.64 19.08 72.78C19.07 72.84 19.1 72.92 19.1 72.97C19.1 73 19.1 73.1 19.07 73.08C18.97 73 19.11 72.83 19.05 72.71C18.98 72.59 18.99 72.45 18.99 72.32C18.99 72.07 18.99 71.83 18.99 71.59C19 71.09 18.99 70.58 18.99 70.07C18.99 70.03 18.99 69.96 19 69.97ZM19.05 73.64C19.05 73.74 18.96 73.74 18.98 73.64C19.01 73.45 18.96 73.33 19.01 73.15C19.03 73.33 19.03 73.45 19.05 73.64ZM21.06 74.74C21.16 74.74 21.23 74.79 21.23 74.88C21.22 76.64 21.25 78.37 21.22 80.12C20.6 80.15 20.06 80.11 19.44 80.11C19.33 80.11 19.28 80.05 19.36 79.96C19.39 79.91 19.23 80.01 19.22 79.99C19.21 79.98 19.18 79.89 19.19 79.84C19.23 78.87 19.15 77.9 19.16 76.93C19.16 76.82 19.09 76.7 19.29 76.71C19.42 76.71 19.34 76.59 19.28 76.54C19.16 76.44 19.15 76.27 19.14 76.12C19.11 75.74 19.18 75.31 19.18 74.94C19.18 74.85 19 74.83 19.01 74.94C19.05 75.38 19.02 75.76 19.02 76.22C19.02 76.31 18.98 76.24 18.99 76.15C18.99 75.73 19 75.37 18.98 74.94C18.98 74.84 19.03 74.81 19.14 74.81C19.8 74.78 20.4 74.76 21.06 74.74ZM33.41 74.73C33.45 75.56 33.43 76.37 33.43 77.2C33.44 78.06 33.44 78.91 33.43 79.77C33.43 79.88 33.46 80 33.42 80.1C33.38 80.2 33.19 80.14 33.06 80.15C32.82 80.15 32.56 80.15 32.3 80.15C31.83 80.15 31.34 80.15 30.86 80.15C29.87 80.15 28.88 80.15 27.89 80.15C27.39 80.15 26.88 80.15 26.37 80.15C25.89 80.15 25.41 80.15 24.93 80.15C24.45 80.15 23.96 80.15 23.48 80.15C23.23 80.15 22.97 80.15 22.72 80.14C22.6 80.14 22.46 80.16 22.35 80.13C22.27 80.1 22.29 79.98 22.29 79.9C22.32 78.18 22.26 76.44 22.32 74.73C26.05 74.72 29.7 74.73 33.41 74.73ZM34.34 74.73C35.17 74.73 35.86 74.71 36.67 74.74C36.68 76.55 36.67 78.32 36.67 80.13C35.87 80.16 35.13 80.16 34.33 80.14C34.33 78.32 34.31 76.54 34.34 74.73ZM19.08 78.66C19.11 78.75 19.08 78.75 19.06 78.66C18.94 77.98 19 77.29 18.99 76.58C19.13 77.29 18.91 77.98 19.08 78.66ZM19.09 79.03C19.08 79.27 19.1 79.43 19.1 79.64C19.11 79.73 19.05 79.81 19.09 79.9C19.14 79.99 18.99 80.13 19.01 80.04C19.07 79.73 19.01 79.4 19.04 79.03C19.04 78.95 19.1 78.93 19.09 79.03ZM33.42 81.09C33.47 82.9 33.41 84.71 33.44 86.51C33.38 86.5 33.35 86.57 33.3 86.55C33.11 86.48 32.95 86.54 32.77 86.54C29.31 86.48 25.81 86.54 22.32 86.49C22.27 84.77 22.32 83.02 22.29 81.29C22.29 81.22 22.28 81.13 22.35 81.11C22.39 81.09 22.44 81.1 22.49 81.1C26.14 81.08 29.76 81.09 33.42 81.09ZM19.22 81.15C19.33 81.14 19.43 81.14 19.53 81.14C19.71 81.14 19.88 81.12 20.06 81.12C20.45 81.12 20.82 81.1 21.23 81.12C21.24 82.32 21.23 83.52 21.23 84.72C21.23 85.02 21.23 85.34 21.23 85.64C21.23 85.79 21.24 85.96 21.23 86.1C21.21 86.23 21.31 86.48 21.13 86.48C20.77 86.49 20.42 86.47 20.06 86.47C19.96 86.47 19.86 86.47 19.76 86.46C19.68 86.46 19.6 86.46 19.53 86.45C19.45 86.45 19.37 86.46 19.3 86.44C19.23 86.43 19.14 86.47 19.07 86.45C18.9 86.39 19.02 86.21 18.98 86.02C18.94 85.84 19.05 85.75 19.04 85.94C19.03 86.14 19.02 86.41 19.13 86.28C19.22 86.15 19.16 85.99 19.17 85.84C19.21 85.25 19.16 84.65 19.17 84.06C19.19 83.46 19.16 82.87 19.17 82.28C19.17 82.12 19.17 81.97 19.17 81.81C19.17 81.72 19.18 81.65 19.19 81.54C19.2 81.46 19.02 81.56 19 81.51C18.97 81.45 19.1 81.48 19.25 81.5C19.38 81.53 19.13 81.38 19.21 81.35C19.36 81.28 19.13 81.18 18.97 81.17C19.08 81.13 19.14 81.16 19.22 81.15ZM19 81.73C19 81.99 19 82.26 19 82.46C19 82.64 19.01 83.07 19 83.06C18.99 83.05 19 82.59 19 82.4C18.99 82.22 19 81.97 19 81.73C18.99 81.63 19 81.63 19 81.73ZM35.81 82.19C35.9 82.99 35.82 83.84 35.85 84.65C35.98 84.77 36.13 84.88 36.18 85.04C36.27 85.35 36.06 85.67 35.72 85.78C35.57 85.82 35.44 85.82 35.28 85.78C34.73 85.63 34.63 84.93 35.15 84.67C35.14 83.93 35.16 83.21 35.14 82.47C35.14 82.32 35.21 82.16 35.43 82.15C35.57 82.14 35.6 82.16 35.81 82.19ZM19.09 83.91C19.09 84.11 19.09 84.22 19.09 84.39C19.09 84.48 19.08 84.57 19.1 84.64C19.11 84.7 19.05 84.84 19.05 84.78C19.02 84.49 19.03 84.23 19.05 83.91C19.05 83.8 19.1 83.78 19.09 83.91ZM19.02 87.51C19.07 87.54 19.09 87.52 19.15 87.51C19.77 87.43 20.27 87.51 20.92 87.44C21.25 87.4 21.27 87.68 21.24 87.95C21.21 88.2 21.24 88.43 21.23 88.67C21.23 89.65 21.23 90.61 21.23 91.58C21.23 91.84 21.23 92.1 21.23 92.37C21.23 92.5 21.24 92.63 21.23 92.77C21.22 92.89 21.02 92.84 20.89 92.84C20.35 92.85 19.77 92.82 19.23 92.79C19.15 92.79 19.04 92.81 19.01 92.76C18.97 92.72 19 92.63 18.99 92.57C18.98 92.47 19 92.34 18.99 92.24C18.97 92.02 19.02 91.72 18.98 91.52C18.94 91.34 19.08 90.85 19.06 91C19.05 91.16 19.02 91.49 19.03 91.71C19.04 91.96 19.04 92.26 19.05 92.5C19.06 92.56 19.02 92.66 19.08 92.69C19.15 92.73 19.1 92.64 19.12 92.56C19.14 92.46 19.11 92.35 19.13 92.24C19.16 92 19.16 91.76 19.16 91.51C19.16 91.38 19.17 91.25 19.15 91.11C19.13 90.97 19.35 90.89 19.29 90.78C19.23 90.66 19.13 90.53 19.18 90.39C19.2 90.33 19.18 90.26 19.18 90.19C19.18 90.15 19.19 90.08 19.15 90.05C19.1 90.02 19.07 90.2 19.07 90.18C19.08 90.16 19.04 90.07 19.01 90.03C18.96 89.95 18.99 89.83 18.99 89.73C18.98 89.25 19 88.76 18.99 88.28C18.98 88.02 19.01 87.6 19.03 87.98C19.05 88.33 19.03 88.46 19.03 88.73C19.03 89.01 19.03 89.21 19.04 89.47C19.04 89.6 19.03 89.73 19.04 89.86C19.04 89.92 19 90.02 19.08 90.03C19.13 90.04 19.13 89.98 19.13 89.93C19.14 89.44 19.15 88.96 19.12 88.48C19.11 88.23 19.15 87.99 19.12 87.75C19.12 87.68 19.27 87.6 19.28 87.62C19.28 87.65 19.11 87.5 19.08 87.58C19.03 87.68 18.98 87.8 18.98 87.63C18.98 87.55 18.97 87.48 19.02 87.51ZM27.89 87.44C29.74 87.44 31.58 87.43 33.43 87.45C33.44 88.3 33.44 89.1 33.44 89.93C33.43 90.79 33.44 91.64 33.43 92.5C33.43 92.61 33.47 92.73 33.41 92.82C33.36 92.91 33.18 92.86 33.06 92.86C32.82 92.87 32.56 92.87 32.31 92.87C31.83 92.87 31.34 92.87 30.86 92.87C29.9 92.87 28.93 92.87 27.97 92.87C27.46 92.87 26.96 92.87 26.45 92.87C25.97 92.87 25.49 92.87 25 92.87C24.5 92.87 23.99 92.87 23.48 92.86C23.23 92.86 22.97 92.87 22.73 92.85C22.6 92.85 22.44 92.89 22.34 92.83C22.26 92.78 22.29 92.66 22.29 92.57C22.3 90.86 22.29 89.16 22.3 87.45C24.18 87.44 26.03 87.44 27.89 87.44ZM36.67 87.45C36.68 88.51 36.68 89.54 36.68 90.59C36.68 91.14 36.68 91.7 36.67 92.23C36.67 92.49 36.79 92.89 36.43 92.87C36.07 92.86 35.83 92.87 35.5 92.87C35.17 92.87 34.93 92.86 34.57 92.88C34.21 92.89 34.34 92.49 34.33 92.23C34.32 91.72 34.32 91.18 34.32 90.65C34.33 89.59 34.32 88.53 34.33 87.46C35.12 87.42 35.87 87.44 36.67 87.45ZM19.08 90.39C19.09 90.39 19.09 90.51 19.08 90.51C19.06 90.51 19.07 90.39 19.08 90.39ZM21.06 93.79C21.17 93.78 21.24 93.85 21.24 93.95C21.22 95.7 21.25 97.43 21.23 99.19C20.51 99.19 19.78 99.21 19.12 99.14C19.27 98.42 19.15 97.72 19.18 96.98C19.18 96.89 19.11 96.89 19.11 96.98C19.09 97.54 19.06 98.01 19.1 98.59C19.11 98.69 19.03 98.68 19.04 98.58C19.1 97.85 19.03 97.18 18.98 96.45C18.97 96.37 19.04 96.34 19.03 96.45C19.01 96.61 19.03 96.64 19.03 96.8C19.02 96.93 19.15 96.87 19.15 96.78C19.18 96.03 19.15 95.29 19.2 94.55C19.2 94.45 19.22 94.34 19.28 94.28C19.34 94.21 19.48 94.09 19.37 94.06C19.29 94.04 19.29 94.18 19.23 94.18C19.19 94.18 19.2 94.11 19.19 94.08C19.17 94.03 19.21 93.95 19.15 93.91C19.06 93.95 19.14 94.02 19.1 94.09C19.06 94.15 19.01 94.1 18.99 94.02C18.96 93.89 19.03 93.87 19.14 93.86C19.78 93.79 20.4 93.83 21.06 93.79ZM22.33 93.79C26.06 93.78 29.71 93.78 33.43 93.79C33.45 95.62 33.44 97.37 33.43 99.2C29.71 99.22 26.02 99.21 22.29 99.2C22.32 97.38 22.25 95.59 22.33 93.79ZM34.34 93.79C35.17 93.79 35.86 93.76 36.67 93.8C36.68 95.61 36.68 97.38 36.68 99.19C35.87 99.22 35.14 99.21 34.32 99.2C34.33 97.38 34.3 95.59 34.34 93.79ZM19.03 94.6C19.07 94.85 19.13 95.05 19.06 95.27C19.03 95.38 19.01 95.5 19.02 95.59C19.04 95.65 19.02 95.87 19.01 95.81C18.96 95.66 18.98 95.39 19.05 95.19C19.11 95.01 19.01 94.82 18.99 94.6C18.98 94.49 19.01 94.48 19.03 94.6ZM19.03 99.1C19.01 99.17 19 99.18 18.98 99.1C18.95 98.97 19.07 98.98 19.03 99.1ZM17.09 102.09C20.7 102.1 24.29 102.09 27.89 102.09C29.69 102.09 31.49 102.09 33.29 102.09C35.12 102.1 36.95 102.07 38.77 102.11C38.75 102.99 38.8 103.75 38.74 104.6C31.46 104.6 24.19 104.6 16.92 104.6C16.85 103.79 16.92 103.06 16.87 102.26C16.87 102.14 16.96 102.09 17.09 102.09ZM16.49 102.3C16.54 102.32 16.54 102.35 16.49 102.35C16.33 102.35 16.32 102.25 16.49 102.3ZM41.31 57.7C41.34 58.33 41.31 58.91 41.32 59.52C41.33 59.67 41.32 59.82 41.32 59.98C41.33 60.13 41.36 60.33 41.14 60.31C40.92 60.28 40.79 60.31 40.6 60.3C40.4 60.28 40.26 60.32 40.06 60.29C39.82 60.26 39.66 60.36 39.71 60.57C39.74 60.74 39.71 60.88 39.71 61.03C39.72 61.35 39.71 61.65 39.71 61.96C39.72 62.57 39.72 63.19 39.72 63.81C39.72 66.29 39.72 68.77 39.72 71.26C39.72 76.23 39.72 81.2 39.72 86.17C39.72 91.14 39.73 96.11 39.72 101.08C39.72 101.41 39.63 101.73 39.66 102.07C39.68 102.38 39.66 102.68 39.66 102.99C39.67 103.61 39.65 104.22 39.7 104.84C39.71 104.99 39.71 105.15 39.69 105.3C39.67 105.44 39.77 105.65 39.64 105.75C39.33 105.97 38.96 106.14 38.62 106.32C37.93 106.68 37.21 106.99 36.48 107.27C33.8 108.31 30.84 108.77 27.89 108.7C24.94 108.64 22.04 108.07 19.31 107.14C18.56 106.88 17.82 106.6 17.1 106.29C16.73 106.12 16.36 105.96 16.01 105.77C15.87 105.69 15.94 105.5 15.93 105.36C15.92 105.22 15.92 105.06 15.93 104.9C15.93 104.29 15.91 103.67 15.94 103.06C15.96 102.44 15.93 101.83 15.93 101.21C15.92 96.24 15.93 91.27 15.92 86.3C15.92 81.33 15.93 76.36 15.93 71.39C15.93 68.91 15.93 66.42 15.93 63.94C15.93 63.32 15.93 62.7 15.93 62.09C15.93 61.78 15.93 61.47 15.93 61.17C15.92 61.02 15.94 60.85 15.92 60.71C15.91 60.56 16.01 60.32 15.81 60.3C15.69 60.29 15.6 60.3 15.5 60.3C15.42 60.3 15.35 60.29 15.27 60.3C15.08 60.31 14.94 60.27 14.73 60.31C14.52 60.34 14.44 60.22 14.47 60.05C14.5 59.88 14.47 59.74 14.47 59.59C14.49 58.95 14.46 58.35 14.48 57.7C23.43 57.69 32.37 57.7 41.31 57.7Z"/></g></svg>